<svg xmlns="http://www.w3.org/2000/svg" width="128" height="128" viewBox="0 0 128 128">
  <defs>
    <linearGradient id="bg" x1="0" y1="0" x2="1" y2="1">
      <stop offset="0%" stop-color="#4CAF50"/>
      <stop offset="100%" stop-color="#2E7D32"/>
    </linearGradient>
  </defs>
  <rect width="128" height="128" rx="24" fill="url(#bg)"/>
  <!-- Phone handset -->
  <path d="M38 42C38 36.48 42.48 32 48 32H62C67.52 32 72 36.48 72 42V52C72 57.52 67.52 62 62 62H56L64 78L88 62H92C97.52 62 102 66.48 102 72V98C102 103.52 97.52 108 92 108H48C42.48 108 38 103.52 38 98V42Z" fill="white" opacity="0.95"/>
  <!-- Phone icon inside -->
  <circle cx="56" cy="46" r="6" fill="#4CAF50"/>
  <path d="M55 44L53 46L55 48" stroke="white" stroke-width="1.5" fill="none" stroke-linecap="round"/>
  <path d="M57 44L59 46L57 48" stroke="white" stroke-width="1.5" fill="none" stroke-linecap="round"/>
  <!-- Chat lines -->
  <rect x="70" y="72" width="20" height="4" rx="2" fill="#C8E6C9"/>
  <rect x="70" y="80" width="14" height="4" rx="2" fill="#C8E6C9"/>
  <rect x="50" y="80" width="16" height="4" rx="2" fill="#C8E6C9"/>
  <rect x="50" y="88" width="24" height="4" rx="2" fill="#C8E6C9"/>
  <rect x="50" y="96" width="10" height="4" rx="2" fill="#C8E6C9"/>
  <!-- Signal waves -->
  <path d="M96 36C96 36 100 32 100 28" stroke="white" stroke-width="3" fill="none" stroke-linecap="round" opacity="0.6"/>
  <path d="M96 28C96 28 104 20 104 12" stroke="white" stroke-width="3" fill="none" stroke-linecap="round" opacity="0.3"/>
</svg>
